<svg width="117" height="34" viewBox="0 0 117 34" fill="none" xmlns="http://www.w3.org/2000/svg">
<g clip-path="url(#clip0_0_199)">
<path d="M8.86838 3.71573L14.109 0.689331C14.2582 0.603231 14.4433 0.603231 14.5926 0.689331L28.4044 8.66358C28.5536 8.74968 28.6454 8.90897 28.6469 9.08116L28.6655 14.5657C28.6655 14.7393 28.5737 14.9001 28.423 14.9862L23.1896 18.0083C22.8682 18.1948 22.4649 17.9623 22.4635 17.5907L22.4463 12.6686C22.4463 12.4964 22.353 12.3372 22.2038 12.2511L8.86838 4.55376C8.5455 4.36722 8.5455 3.90228 8.86838 3.71573Z" fill="#010101"/>
<path d="M5.48167 28.5583L0.242514 25.5334C0.0918395 25.4473 0 25.288 0 25.1144V9.16585C0 8.99365 0.0918395 8.83437 0.241079 8.74683L4.98229 5.98734C5.13297 5.89981 5.31808 5.89981 5.46732 5.98734L10.7007 9.00944C11.0222 9.19598 11.0236 9.65949 10.7022 9.84747L6.44885 12.3228C6.29962 12.4089 6.20778 12.5682 6.20778 12.7419V28.1408C6.20778 28.5138 5.80454 28.7463 5.48167 28.5598V28.5583Z" fill="#010101"/>
<path d="M28.6685 19.0629V25.1128C28.6685 25.2864 28.5766 25.4457 28.4259 25.5318L14.6141 33.5061C14.4649 33.5922 14.2812 33.5922 14.132 33.5061L9.37212 30.7796C9.22145 30.6935 9.12817 30.5328 9.12817 30.3591V24.3164C9.12817 23.9447 9.52997 23.7122 9.85284 23.8959L14.1234 26.3426C14.2726 26.4287 14.4563 26.4273 14.6055 26.3426L27.9409 18.6424C28.2638 18.4559 28.667 18.6883 28.667 19.0614L28.6685 19.0629Z" fill="#010101"/>
<path d="M73.4554 8.94349H68.1057C67.8733 8.94349 67.6867 9.13148 67.6867 9.36395V19.5395C67.6867 20.841 67.4758 21.9302 67.0524 22.8055C66.6291 23.655 66.0479 24.2922 65.3075 24.7169C64.567 25.1144 63.7204 25.3153 62.769 25.3153C61.3928 25.3153 60.3223 24.9035 59.556 24.0812C58.8156 23.2317 58.4454 21.9158 58.4454 20.1379V9.36538C58.4454 9.13291 58.2574 8.94493 58.0263 8.94493H54.1404C54.1088 8.93919 54.0772 8.93632 54.0457 8.93632H46.3053V8.50582C46.3053 7.46976 46.5435 6.7006 47.0199 6.19548C47.5222 5.66454 48.2239 5.39906 49.1222 5.39906C49.5986 5.39906 50.0478 5.46507 50.4711 5.59853C50.7323 5.68176 50.9891 5.78938 51.2116 5.90705C51.434 6.02472 51.7095 5.91279 51.7942 5.67458L53.1316 1.97374C53.2005 1.78145 53.123 1.5662 52.9465 1.46431C52.4241 1.16153 51.8114 0.933368 51.1054 0.778388C50.286 0.593275 49.4264 0.5 48.5267 0.5C45.8834 0.5 43.8472 1.23041 42.4179 2.69123C40.9901 4.12479 40.2755 6.05055 40.2755 8.46708V8.93632H37.4801C37.206 8.93632 36.9822 9.1243 36.9822 9.35677V13.2944C36.9822 13.5269 37.2046 13.7148 37.4801 13.7148H40.2755V29.9518C40.2755 30.1842 40.4635 30.3722 40.6945 30.3722H46.0427C46.2738 30.3722 46.4617 30.1842 46.4617 29.9518V13.7148H52.2562V21.052C52.2562 23.2561 52.6394 25.0757 53.4071 26.5092C54.1748 27.917 55.2453 28.9659 56.62 29.6562C58.022 30.3464 59.6091 30.6922 61.3799 30.6922C63.0201 30.6922 64.5269 30.3206 65.9016 29.5758C66.7195 29.1267 67.4198 28.5527 68.0038 27.8581V29.9518C68.0038 30.1842 68.1918 30.3722 68.4229 30.3722H73.4554C73.6878 30.3722 73.8744 30.1842 73.8744 29.9518V9.36538C73.8744 9.13291 73.6864 8.94493 73.4554 8.94493V8.94349Z" fill="#010101"/>
<path d="M91.4628 19.1392C90.7223 18.6872 89.8886 18.3428 88.963 18.1031C88.0389 17.8649 87.1119 17.6913 86.1863 17.5851C85.288 17.4516 84.4543 17.3067 83.6865 17.1474C82.9202 16.9881 82.2975 16.7758 81.8225 16.5103C81.3719 16.2448 81.148 15.8473 81.148 15.3149C81.148 14.7309 81.4652 14.253 82.1009 13.8814C82.7351 13.5097 83.7411 13.3246 85.1158 13.3246C86.0944 13.3246 87.0989 13.4437 88.1307 13.6833C89.0563 13.8685 89.9704 14.2071 90.8758 14.6979C91.0897 14.8127 91.3537 14.728 91.457 14.5085L93.1647 10.8492C93.2579 10.6498 93.1819 10.4087 92.9896 10.3039C92.0454 9.78878 90.9031 9.38841 89.56 9.10572C88.0532 8.78715 86.5723 8.62787 85.1172 8.62787C83.0551 8.62787 81.2829 8.93352 79.802 9.54339C78.3211 10.1289 77.1846 10.9382 76.391 11.9743C75.6247 13.0103 75.2402 14.2042 75.2402 15.5589C75.2402 16.7801 75.4655 17.7759 75.9146 18.5465C76.391 19.3157 77.0124 19.927 77.7787 20.379C78.5464 20.831 79.3916 21.1754 80.3172 21.4151C81.2427 21.6275 82.1554 21.7997 83.0537 21.9331C83.9793 22.0666 84.8259 22.1986 85.5922 22.3306C86.3585 22.4641 86.9669 22.6635 87.4175 22.929C87.8939 23.1686 88.1321 23.5403 88.1321 24.044C88.1321 24.6553 87.8279 25.1331 87.2195 25.4775C86.6383 25.8219 85.6324 25.9956 84.2046 25.9956C82.9088 25.9956 81.5871 25.8105 80.2382 25.4388C79.0888 25.093 78.07 24.6668 77.1803 24.1602C76.9665 24.0382 76.6953 24.1243 76.5919 24.3482L74.8786 28.0548C74.7881 28.25 74.8613 28.481 75.0436 28.5929C75.9835 29.1669 77.1989 29.6562 78.6899 30.0595C80.3817 30.4842 82.141 30.6966 83.9649 30.6966V30.6937C86.1059 30.6937 87.9183 30.4024 89.3992 29.8184C90.906 29.2344 92.0568 28.4379 92.8504 27.4291C93.6439 26.3945 94.04 25.2121 94.04 23.8847C94.04 22.6635 93.8018 21.6806 93.3254 20.9372C92.849 20.1666 92.2276 19.5697 91.4613 19.1449L91.4628 19.1392Z" fill="#010101"/>
<path d="M115.474 13.8054C114.496 12.1322 113.161 10.8579 111.468 9.98116C109.802 9.07855 108.004 8.62653 105.835 8.62653C103.667 8.62653 101.723 9.10438 100.005 10.0601C98.286 10.9885 96.9242 12.2901 95.9197 13.9633C94.941 15.6092 94.4517 17.535 94.4517 19.6587C94.4517 21.7825 94.9539 23.6825 95.9584 25.3542C96.9629 27.0002 98.3778 28.3017 100.202 29.2574C102.053 30.2131 104.194 30.691 106.628 30.691V30.6938C108.559 30.6938 110.265 30.4011 111.745 29.8185C113.095 29.2617 114.236 28.494 115.169 27.5182C115.321 27.3589 115.321 27.1064 115.172 26.9428L112.423 23.9508C112.269 23.7829 112.01 23.7714 111.837 23.9221C111.204 24.4746 110.512 24.8993 109.76 25.1964C108.914 25.5408 107.922 25.7144 106.785 25.7144C105.517 25.7144 104.406 25.4891 103.453 25.0371C102.528 24.5592 101.8 23.8819 101.272 23.0066C100.998 22.5158 100.803 21.9834 100.678 21.4123H116.441C116.657 21.4123 116.838 21.2473 116.858 21.032C116.872 20.8842 116.886 20.7307 116.899 20.5757C116.927 20.2571 116.939 19.9787 116.939 19.7391C116.939 17.4288 116.45 15.4513 115.471 13.804L115.474 13.8054ZM103.059 14.0451C103.878 13.5672 104.818 13.3276 105.876 13.3276C106.933 13.3276 107.859 13.5672 108.652 14.0451C109.446 14.4956 110.067 15.1342 110.516 15.9565C110.815 16.5018 111.011 17.1131 111.112 17.7875H100.606C100.71 17.1246 100.905 16.5262 101.195 15.9952C101.645 15.1457 102.265 14.4956 103.059 14.0436V14.0451Z" fill="#010101"/>
</g>
<defs>
<clipPath id="clip0_0_199">
<rect width="116.936" height="33.0723" fill="white" transform="translate(0 0.5)"/>
</clipPath>
</defs>
</svg>
