<svg width="42" height="42" viewBox="0 0 42 42" fill="none" xmlns="http://www.w3.org/2000/svg">
<g clip-path="url(#clip0_0_277)">
<path d="M21.0816 41.9848C32.6346 41.9848 42.0002 32.6192 42.0002 21.0663C42.0002 9.51326 32.6346 0.147705 21.0816 0.147705C9.52864 0.147705 0.163086 9.51326 0.163086 21.0663C0.163086 32.6192 9.52864 41.9848 21.0816 41.9848Z" fill="#071927"/>
<path d="M21.082 39.1597C31.0747 39.1597 39.1755 31.0589 39.1755 21.0662C39.1755 11.0734 31.0747 2.97272 21.082 2.97272C11.0892 2.97272 2.98853 11.0734 2.98853 21.0662C2.98853 31.0589 11.0892 39.1597 21.082 39.1597Z" stroke="#70E000" stroke-width="1.81899" stroke-miterlimit="10"/>
<path d="M26.355 15.8812L27.387 13.3392C26.7389 12.9168 25.9962 12.5772 25.1588 12.3203L24.2948 14.9492C24.9994 15.1728 25.686 15.4834 26.3546 15.8812H26.355Z" fill="#70E000"/>
<path d="M17.1199 21.0686C16.8159 21.0006 16.7127 20.6192 16.9413 20.407L18.444 18.3472C18.3719 18.2947 18.3026 18.2406 18.2375 18.1841C17.8598 17.8568 17.6713 17.425 17.6713 16.8879C17.6713 16.4348 17.8012 16.0321 18.0613 15.6798C18.3215 15.3275 18.7324 15.0424 19.2944 14.824C19.8045 14.6261 20.4571 14.5184 21.2502 14.5L23.1564 11.8871C22.6136 11.815 22.0687 11.7789 21.5214 11.7789C19.9106 11.7789 18.5808 12.0182 17.532 12.4963C16.4833 12.9743 15.7029 13.6122 15.1912 14.409C14.6791 15.2062 14.4235 16.0829 14.4235 17.0391C14.4235 17.9953 14.616 18.7507 15.0023 19.3545C15.3882 19.9588 15.8872 20.441 16.5001 20.8019C17.1125 21.1628 17.7918 21.4561 18.5386 21.6827C18.8962 21.7913 19.2543 21.8929 19.6123 21.9883L19.7229 21.652L17.1191 21.069L17.1199 21.0686Z" fill="#70E000"/>
<path d="M17.797 26.6282C16.7565 26.2595 15.8843 25.7978 15.1792 25.244L14.0465 27.786C14.7847 28.407 15.7831 28.9146 17.0416 29.3087C17.0916 29.3243 17.142 29.3394 17.1924 29.3542L18.0592 26.7167C17.9716 26.6885 17.8843 26.6594 17.797 26.6282V26.6282Z" fill="#70E000"/>
<path d="M27.55 22.3746C27.1727 21.7704 26.6774 21.2923 26.065 20.94C25.4521 20.5877 24.7725 20.3025 24.0265 20.0842C23.5939 19.958 23.16 19.8396 22.7245 19.7274L22.6528 19.9453L25.1621 20.507C25.466 20.575 25.5693 20.9564 25.3411 21.1686L23.8364 23.2571C24.0117 23.3603 24.1719 23.473 24.3157 23.595C24.7016 23.9224 24.8946 24.3546 24.8946 24.8912C24.8946 25.3279 24.7602 25.718 24.4919 26.0617C24.2231 26.4058 23.8036 26.6782 23.2333 26.8798C22.666 27.0801 21.9245 27.1805 21.0093 27.1817L19.1407 29.7757C19.7458 29.8585 20.3636 29.9003 20.9933 29.9003C22.6041 29.9003 23.938 29.661 24.9949 29.1829C26.0519 28.7049 26.8364 28.0674 27.3485 27.2702C27.8602 26.4734 28.1162 25.6053 28.1162 24.6651C28.1162 23.7249 27.9273 22.9789 27.55 22.3746V22.3746Z" fill="#70E000"/>
<path d="M16.0879 32.796L17.2088 29.3845C17.8248 29.5678 18.4546 29.7045 19.0983 29.7942L16.6876 33.1403C16.4278 33.3787 16.0151 33.143 16.0869 32.7993L16.0879 32.796Z" fill="white" stroke="white" stroke-width="0.0481989"/>
<mask id="path-8-inside-1_0_277" fill="white">
<path fill-rule="evenodd" clip-rule="evenodd" d="M26.3124 8.80864L25.1588 12.3199V12.3203C25.1587 12.3203 25.1587 12.3203 25.1586 12.3203L24.2947 14.9488C24.1681 14.9086 24.0411 14.8709 23.9133 14.8365C23.0739 14.61 22.2689 14.4969 21.4971 14.4969V14.4961C21.4135 14.4961 21.3316 14.4973 21.2509 14.4994L23.1571 11.8865C23.1572 11.8865 23.1573 11.8865 23.1574 11.8865L25.6713 8.44034C25.9499 8.18184 26.3956 8.43748 26.3124 8.80864ZM21.4971 14.4969L21.4974 14.4972C22.2688 14.4972 23.0742 14.6103 23.9136 14.8368C24.0414 14.8712 24.1684 14.9089 24.295 14.9491L22.7247 19.7275C22.4085 19.6459 22.0918 19.5673 21.7739 19.4931C21.0189 19.317 20.3351 19.1367 19.7227 18.952C19.2219 18.801 18.7999 18.6023 18.4564 18.3561C18.7999 18.6024 19.222 18.8014 19.7228 18.9521C20.3353 19.1368 21.019 19.3171 21.774 19.4932C22.0919 19.5674 22.4086 19.646 22.7249 19.7276L22.6532 19.9455L25.1624 20.5072C25.4668 20.5756 25.57 20.9566 25.3414 21.1688L23.8368 23.2571L23.8367 23.2573L21.0097 27.1818V27.1822H20.9941C19.9949 27.1822 19.017 27.0265 18.06 26.7168L19.6138 21.9882L19.6134 21.9881L19.724 21.6518L17.1202 21.0688C16.8162 21.0008 16.713 20.6194 16.9416 20.4072L18.4442 18.3474L18.4441 18.3473L21.2507 14.5001C21.3315 14.498 21.4134 14.4968 21.497 14.4968L21.4971 14.4969Z"/>
</mask>
<path fill-rule="evenodd" clip-rule="evenodd" d="M26.3124 8.80864L25.1588 12.3199V12.3203C25.1587 12.3203 25.1587 12.3203 25.1586 12.3203L24.2947 14.9488C24.1681 14.9086 24.0411 14.8709 23.9133 14.8365C23.0739 14.61 22.2689 14.4969 21.4971 14.4969V14.4961C21.4135 14.4961 21.3316 14.4973 21.2509 14.4994L23.1571 11.8865C23.1572 11.8865 23.1573 11.8865 23.1574 11.8865L25.6713 8.44034C25.9499 8.18184 26.3956 8.43748 26.3124 8.80864ZM21.4971 14.4969L21.4974 14.4972C22.2688 14.4972 23.0742 14.6103 23.9136 14.8368C24.0414 14.8712 24.1684 14.9089 24.295 14.9491L22.7247 19.7275C22.4085 19.6459 22.0918 19.5673 21.7739 19.4931C21.0189 19.317 20.3351 19.1367 19.7227 18.952C19.2219 18.801 18.7999 18.6023 18.4564 18.3561C18.7999 18.6024 19.222 18.8014 19.7228 18.9521C20.3353 19.1368 21.019 19.3171 21.774 19.4932C22.0919 19.5674 22.4086 19.646 22.7249 19.7276L22.6532 19.9455L25.1624 20.5072C25.4668 20.5756 25.57 20.9566 25.3414 21.1688L23.8368 23.2571L23.8367 23.2573L21.0097 27.1818V27.1822H20.9941C19.9949 27.1822 19.017 27.0265 18.06 26.7168L19.6138 21.9882L19.6134 21.9881L19.724 21.6518L17.1202 21.0688C16.8162 21.0008 16.713 20.6194 16.9416 20.4072L18.4442 18.3474L18.4441 18.3473L21.2507 14.5001C21.3315 14.498 21.4134 14.4968 21.497 14.4968L21.4971 14.4969Z" fill="white"/>
<path d="M25.1589 12.3199L25.1131 12.3048L25.1107 12.3122V12.3199H25.1589ZM26.3125 8.80859L26.3585 8.82371L26.3595 8.81913L26.3125 8.80859ZM25.1589 12.3203L25.1447 12.3664L25.2071 12.3855V12.3203H25.1589ZM25.1586 12.3202L25.1728 12.2741L25.1276 12.2603L25.1129 12.3052L25.1586 12.3202ZM24.2948 14.9487L24.2802 14.9947L24.3257 15.0091L24.3406 14.9638L24.2948 14.9487ZM23.9134 14.8365L23.9008 14.883L23.9008 14.883L23.9134 14.8365ZM21.4971 14.496H21.5453V14.4478H21.4971V14.496ZM21.2509 14.4993L21.212 14.4709L21.1543 14.55L21.2521 14.5475L21.2509 14.4993ZM23.1571 11.8864L23.1635 11.8387L23.1351 11.8349L23.1182 11.858L23.1571 11.8864ZM23.1575 11.8865L23.1511 11.9343L23.1795 11.9381L23.1964 11.9149L23.1575 11.8865ZM25.6714 8.4403L25.638 8.4043L25.6324 8.4119L25.6714 8.4403ZM21.4974 14.4972L21.4616 14.5294L21.476 14.5454H21.4974V14.4972ZM23.9136 14.8368L23.9011 14.8833L23.9011 14.8833L23.9136 14.8368ZM24.295 14.949L24.3408 14.9641L24.356 14.9178L24.3096 14.9031L24.295 14.949ZM22.7248 19.7274L22.7128 19.7741L22.7565 19.7854L22.7706 19.7425L22.7248 19.7274ZM21.7739 19.4931L21.763 19.54L21.763 19.54L21.7739 19.4931ZM19.7227 18.9519L19.7366 18.9058L19.7366 18.9058L19.7227 18.9519ZM18.4564 18.3561L18.4845 18.3169L18.4283 18.3952L18.4564 18.3561ZM19.7229 18.952L19.7368 18.9059L19.7367 18.9058L19.7229 18.952ZM21.7741 19.4932L21.7631 19.5401L21.7631 19.5401L21.7741 19.4932ZM22.7249 19.7275L22.7707 19.7426L22.7868 19.6937L22.7369 19.6808L22.7249 19.7275ZM22.6532 19.9455L22.6074 19.9304L22.5908 19.9809L22.6427 19.9925L22.6532 19.9455ZM25.1624 20.5071L25.173 20.4601L25.173 20.4601L25.1624 20.5071ZM25.3415 21.1687L25.308 21.1327L25.3024 21.1406L25.3415 21.1687ZM23.8368 23.2571L23.7977 23.2289L23.7969 23.2301L23.8368 23.2571ZM23.8368 23.2572L23.8759 23.2854L23.8767 23.2842L23.8368 23.2572ZM21.0097 27.1817L20.9706 27.1536L20.9615 27.1662V27.1817H21.0097ZM21.0097 27.1821V27.2303H21.0579V27.1821H21.0097ZM18.0601 26.7168L18.0143 26.7017L17.9992 26.7477L18.0453 26.7626L18.0601 26.7168ZM19.6139 21.9882L19.6597 22.0032L19.6756 21.9547L19.6263 21.9416L19.6139 21.9882ZM19.6135 21.9881L19.5677 21.973L19.5517 22.0215L19.6011 22.0346L19.6135 21.9881ZM19.7241 21.6517L19.7699 21.6668L19.7865 21.6163L19.7346 21.6047L19.7241 21.6517ZM17.1202 21.0688L17.1308 21.0217L17.1307 21.0217L17.1202 21.0688ZM16.9416 20.4072L16.975 20.4431L16.9805 20.4356L16.9416 20.4072ZM18.4443 18.3473L18.4832 18.3757L18.5119 18.3364L18.4723 18.3081L18.4443 18.3473ZM18.4441 18.3472L18.4052 18.3188L18.3765 18.3582L18.4161 18.3865L18.4441 18.3472ZM21.2508 14.5L21.2496 14.4519L21.2258 14.4525L21.2119 14.4716L21.2508 14.5ZM21.497 14.4968L21.5259 14.4582L21.5131 14.4486H21.497V14.4968ZM25.2047 12.3349L26.3583 8.82364L26.2667 8.79355L25.1131 12.3048L25.2047 12.3349ZM25.2071 12.3203V12.3199H25.1107V12.3203H25.2071ZM25.1445 12.3663C25.1445 12.3663 25.1445 12.3663 25.1445 12.3663V12.3663C25.1445 12.3663 25.1445 12.3663 25.1445 12.3663C25.1445 12.3663 25.1445 12.3663 25.1445 12.3663C25.1445 12.3663 25.1445 12.3663 25.1445 12.3663C25.1445 12.3663 25.1445 12.3663 25.1445 12.3663C25.1445 12.3663 25.1445 12.3663 25.1445 12.3663C25.1445 12.3663 25.1445 12.3663 25.1445 12.3663H25.1445C25.1445 12.3663 25.1445 12.3663 25.1445 12.3663C25.1445 12.3663 25.1445 12.3663 25.1445 12.3663H25.1445C25.1445 12.3663 25.1445 12.3663 25.1445 12.3663C25.1445 12.3663 25.1445 12.3663 25.1445 12.3663V12.3663C25.1445 12.3663 25.1445 12.3663 25.1445 12.3663H25.1445C25.1445 12.3663 25.1445 12.3663 25.1445 12.3663C25.1445 12.3663 25.1445 12.3663 25.1445 12.3663C25.1445 12.3663 25.1445 12.3663 25.1445 12.3663C25.1445 12.3663 25.1445 12.3663 25.1445 12.3663H25.1445V12.3663H25.1445C25.1445 12.3663 25.1445 12.3663 25.1445 12.3663C25.1445 12.3663 25.1445 12.3663 25.1445 12.3663C25.1445 12.3663 25.1445 12.3663 25.1445 12.3663C25.1445 12.3663 25.1445 12.3663 25.1445 12.3663H25.1445C25.1445 12.3663 25.1445 12.3663 25.1445 12.3663V12.3663C25.1445 12.3663 25.1445 12.3663 25.1445 12.3663C25.1445 12.3663 25.1445 12.3663 25.1445 12.3663H25.1445C25.1445 12.3663 25.1445 12.3663 25.1445 12.3663C25.1445 12.3663 25.1445 12.3663 25.1445 12.3663H25.1445L25.1445 12.3663C25.1445 12.3663 25.1445 12.3663 25.1445 12.3663C25.1445 12.3663 25.1445 12.3663 25.1445 12.3663C25.1445 12.3663 25.1445 12.3663 25.1445 12.3663C25.1445 12.3663 25.1445 12.3663 25.1445 12.3663C25.1445 12.3663 25.1445 12.3663 25.1445 12.3663V12.3663C25.1445 12.3663 25.1445 12.3663 25.1445 12.3663C25.1445 12.3663 25.1445 12.3663 25.1445 12.3663C25.1445 12.3663 25.1445 12.3663 25.1445 12.3663H25.1445C25.1445 12.3663 25.1445 12.3663 25.1446 12.3663C25.1446 12.3663 25.1446 12.3663 25.1446 12.3663C25.1446 12.3663 25.1446 12.3663 25.1446 12.3663C25.1446 12.3663 25.1446 12.3663 25.1446 12.3663H25.1446C25.1446 12.3663 25.1446 12.3663 25.1446 12.3663V12.3663C25.1446 12.3663 25.1446 12.3663 25.1446 12.3663C25.1446 12.3663 25.1446 12.3663 25.1446 12.3663H25.1446C25.1446 12.3663 25.1446 12.3663 25.1446 12.3663C25.1446 12.3663 25.1446 12.3663 25.1446 12.3663C25.1446 12.3663 25.1446 12.3663 25.1446 12.3663H25.1446C25.1446 12.3663 25.1446 12.3663 25.1446 12.3663C25.1446 12.3663 25.1446 12.3663 25.1446 12.3663C25.1446 12.3663 25.1446 12.3663 25.1446 12.3663C25.1446 12.3663 25.1446 12.3663 25.1446 12.3663C25.1446 12.3663 25.1446 12.3663 25.1446 12.3663C25.1446 12.3663 25.1446 12.3663 25.1446 12.3663C25.1446 12.3663 25.1446 12.3663 25.1446 12.3663C25.1446 12.3663 25.1446 12.3663 25.1446 12.3663C25.1446 12.3663 25.1446 12.3663 25.1446 12.3663H25.1446C25.1446 12.3663 25.1446 12.3663 25.1446 12.3663C25.1446 12.3663 25.1446 12.3663 25.1446 12.3663V12.3663H25.1446H25.1446C25.1446 12.3663 25.1446 12.3663 25.1446 12.3663C25.1446 12.3663 25.1446 12.3663 25.1446 12.3663C25.1446 12.3663 25.1446 12.3663 25.1446 12.3663C25.1446 12.3663 25.1446 12.3663 25.1446 12.3663H25.1446V12.3663C25.1446 12.3663 25.1446 12.3663 25.1446 12.3663C25.1446 12.3663 25.1446 12.3663 25.1446 12.3663C25.1446 12.3663 25.1446 12.3663 25.1446 12.3663C25.1446 12.3663 25.1446 12.3663 25.1446 12.3663C25.1446 12.3663 25.1446 12.3663 25.1446 12.3663C25.1446 12.3663 25.1446 12.3663 25.1446 12.3663C25.1446 12.3663 25.1446 12.3663 25.1446 12.3663L25.1446 12.3663C25.1446 12.3663 25.1446 12.3663 25.1446 12.3663C25.1446 12.3663 25.1446 12.3663 25.1446 12.3663C25.1446 12.3663 25.1446 12.3663 25.1446 12.3663H25.1446C25.1446 12.3663 25.1446 12.3663 25.1446 12.3663C25.1446 12.3663 25.1446 12.3663 25.1446 12.3663V12.3663C25.1446 12.3663 25.1446 12.3663 25.1446 12.3663H25.1446C25.1446 12.3663 25.1446 12.3663 25.1446 12.3663C25.1446 12.3663 25.1446 12.3663 25.1446 12.3663C25.1446 12.3663 25.1446 12.3663 25.1446 12.3663C25.1446 12.3663 25.1446 12.3663 25.1446 12.3663H25.1446V12.3663C25.1446 12.3663 25.1446 12.3663 25.1446 12.3663C25.1446 12.3663 25.1446 12.3663 25.1446 12.3663C25.1446 12.3663 25.1446 12.3663 25.1446 12.3663C25.1446 12.3663 25.1446 12.3663 25.1446 12.3663C25.1446 12.3663 25.1446 12.3663 25.1446 12.3663H25.1446C25.1446 12.3663 25.1446 12.3663 25.1446 12.3663V12.3663C25.1446 12.3663 25.1446 12.3663 25.1446 12.3663C25.1446 12.3663 25.1446 12.3663 25.1446 12.3663H25.1446C25.1446 12.3663 25.1446 12.3663 25.1446 12.3663C25.1446 12.3663 25.1446 12.3663 25.1446 12.3663H25.1446C25.1446 12.3663 25.1446 12.3663 25.1446 12.3663C25.1446 12.3663 25.1446 12.3663 25.1446 12.3663C25.1446 12.3663 25.1446 12.3663 25.1446 12.3663C25.1446 12.3663 25.1446 12.3663 25.1446 12.3663C25.1446 12.3663 25.1446 12.3663 25.1446 12.3663C25.1446 12.3663 25.1446 12.3663 25.1446 12.3663V12.3663C25.1446 12.3663 25.1446 12.3663 25.1446 12.3663H25.1446C25.1446 12.3663 25.1446 12.3663 25.1446 12.3663H25.1446C25.1446 12.3663 25.1446 12.3663 25.1446 12.3663C25.1446 12.3663 25.1446 12.3663 25.1446 12.3663C25.1446 12.3663 25.1446 12.3663 25.1446 12.3663H25.1446C25.1446 12.3663 25.1446 12.3663 25.1446 12.3663V12.3663C25.1446 12.3663 25.1446 12.3663 25.1446 12.3663C25.1446 12.3663 25.1446 12.3663 25.1446 12.3663H25.1446C25.1446 12.3663 25.1446 12.3663 25.1446 12.3663C25.1446 12.3663 25.1446 12.3663 25.1446 12.3663C25.1446 12.3663 25.1446 12.3663 25.1446 12.3663H25.1446C25.1446 12.3663 25.1446 12.3663 25.1446 12.3663C25.1446 12.3663 25.1446 12.3663 25.1446 12.3663C25.1446 12.3663 25.1446 12.3663 25.1446 12.3663C25.1446 12.3663 25.1446 12.3663 25.1446 12.3663C25.1446 12.3663 25.1446 12.3663 25.1446 12.3663C25.1446 12.3663 25.1446 12.3663 25.1446 12.3663V12.3663C25.1446 12.3663 25.1446 12.3663 25.1446 12.3663H25.1446C25.1446 12.3663 25.1446 12.3663 25.1446 12.3663H25.1446C25.1446 12.3663 25.1446 12.3663 25.1446 12.3663C25.1446 12.3663 25.1446 12.3663 25.1446 12.3663V12.3663H25.1446C25.1446 12.3663 25.1446 12.3663 25.1446 12.3663C25.1446 12.3663 25.1446 12.3663 25.1446 12.3663C25.1446 12.3663 25.1446 12.3663 25.1446 12.3663C25.1446 12.3663 25.1446 12.3663 25.1446 12.3663C25.1446 12.3663 25.1446 12.3663 25.1446 12.3663H25.1446V12.3663C25.1446 12.3663 25.1446 12.3663 25.1446 12.3663C25.1446 12.3663 25.1446 12.3663 25.1446 12.3663H25.1446C25.1446 12.3663 25.1446 12.3663 25.1446 12.3663C25.1446 12.3663 25.1446 12.3663 25.1446 12.3663C25.1446 12.3663 25.1446 12.3663 25.1446 12.3663C25.1446 12.3663 25.1446 12.3663 25.1446 12.3663L25.1446 12.3663C25.1446 12.3663 25.1446 12.3663 25.1446 12.3663C25.1446 12.3663 25.1446 12.3663 25.1446 12.3663C25.1446 12.3663 25.1446 12.3663 25.1446 12.3663C25.1446 12.3663 25.1446 12.3663 25.1446 12.3663H25.1446C25.1446 12.3663 25.1446 12.3663 25.1446 12.3663C25.1446 12.3663 25.1446 12.3663 25.1446 12.3663C25.1446 12.3663 25.1446 12.3663 25.1446 12.3663H25.1446C25.1446 12.3663 25.1446 12.3663 25.1446 12.3663C25.1446 12.3663 25.1446 12.3663 25.1446 12.3663C25.1446 12.3663 25.1446 12.3663 25.1446 12.3663C25.1446 12.3663 25.1446 12.3663 25.1446 12.3663C25.1446 12.3663 25.1446 12.3663 25.1446 12.3663H25.1446V12.3663C25.1446 12.3663 25.1446 12.3663 25.1447 12.3663C25.1447 12.3663 25.1447 12.3663 25.1447 12.3663H25.1447C25.1447 12.3663 25.1447 12.3663 25.1447 12.3663H25.1447C25.1447 12.3663 25.1447 12.3663 25.1447 12.3663V12.3663C25.1447 12.3663 25.1447 12.3663 25.1447 12.3663C25.1447 12.3663 25.1447 12.3663 25.1447 12.3663C25.1447 12.3663 25.1447 12.3663 25.1447 12.3663C25.1447 12.3663 25.1447 12.3663 25.1447 12.3663C25.1447 12.3663 25.1447 12.3663 25.1447 12.3663H25.1447C25.1447 12.3663 25.1447 12.3663 25.1447 12.3663C25.1447 12.3663 25.1447 12.3663 25.1447 12.3663C25.1447 12.3663 25.1447 12.3663 25.1447 12.3663H25.1447C25.1447 12.3663 25.1447 12.3663 25.1447 12.3663C25.1447 12.3663 25.1447 12.3663 25.1447 12.3663V12.3663C25.1447 12.3663 25.1447 12.3663 25.1447 12.3663H25.1447C25.1447 12.3663 25.1447 12.3663 25.1447 12.3663C25.1447 12.3663 25.1447 12.3663 25.1447 12.3663C25.1447 12.3663 25.1447 12.3663 25.1447 12.3663C25.1447 12.3663 25.1447 12.3663 25.1447 12.3663C25.1447 12.3663 25.1447 12.3663 25.1447 12.3663C25.1447 12.3663 25.1447 12.3663 25.1447 12.3663H25.1447C25.1447 12.3663 25.1447 12.3663 25.1447 12.3663V12.3663C25.1447 12.3663 25.1447 12.3663 25.1447 12.3663C25.1447 12.3663 25.1447 12.3663 25.1447 12.3663C25.1447 12.3663 25.1447 12.3663 25.1447 12.3663C25.1447 12.3663 25.1447 12.3663 25.1447 12.3663C25.1447 12.3663 25.1447 12.3663 25.1447 12.3663C25.1447 12.3663 25.1447 12.3663 25.1447 12.3663H25.1447C25.1447 12.3663 25.1447 12.3663 25.1447 12.3663C25.1447 12.3663 25.1447 12.3663 25.1447 12.3663C25.1447 12.3663 25.1447 12.3663 25.1447 12.3663L25.1447 12.3663C25.1447 12.3663 25.1447 12.3663 25.1447 12.3663V12.3663C25.1447 12.3663 25.1447 12.3663 25.1447 12.3663H25.1447C25.1447 12.3663 25.1447 12.3663 25.1447 12.3663C25.1447 12.3663 25.1447 12.3663 25.1447 12.3663C25.1447 12.3663 25.1447 12.3663 25.1447 12.3663C25.1447 12.3663 25.1447 12.3663 25.1447 12.3663V12.3663H25.1447C25.1447 12.3663 25.1447 12.3663 25.1447 12.3663C25.1447 12.3663 25.1447 12.3663 25.1447 12.3663C25.1447 12.3663 25.1447 12.3663 25.1447 12.3663C25.1447 12.3663 25.1447 12.3663 25.1447 12.3664H25.1447H25.1447V12.3664C25.1447 12.3664 25.1447 12.3664 25.1447 12.3664C25.1447 12.3664 25.1447 12.3664 25.1447 12.3664H25.1447C25.1447 12.3664 25.1447 12.3664 25.1447 12.3664C25.1447 12.3664 25.1447 12.3664 25.1447 12.3664C25.1447 12.3664 25.1447 12.3664 25.1447 12.3664L25.1447 12.3664C25.1447 12.3664 25.1447 12.3664 25.1447 12.3664C25.1447 12.3664 25.1447 12.3664 25.1447 12.3664C25.1447 12.3664 25.1447 12.3664 25.1447 12.3664C25.1447 12.3664 25.1447 12.3664 25.1447 12.3664C25.1447 12.3664 25.1447 12.3664 25.1447 12.3664C25.1447 12.3664 25.1447 12.3664 25.1447 12.3664C25.1447 12.3664 25.1447 12.3664 25.1447 12.3664C25.1447 12.3664 25.1447 12.3664 25.1447 12.3664H25.1447C25.1447 12.3664 25.1447 12.3664 25.1447 12.3664C25.1447 12.3664 25.1447 12.3664 25.1447 12.3664C25.1447 12.3664 25.1447 12.3664 25.1447 12.3664C25.1447 12.3664 25.1447 12.3664 25.1447 12.3664C25.1447 12.3664 25.1447 12.3664 25.1447 12.3664H25.1447V12.3664C25.1447 12.3664 25.1447 12.3664 25.1447 12.3664C25.1447 12.3664 25.1447 12.3664 25.1447 12.3664H25.1447C25.1447 12.3664 25.1447 12.3664 25.1447 12.3664C25.1447 12.3664 25.1447 12.3664 25.1447 12.3664C25.1447 12.3664 25.1447 12.3664 25.1447 12.3664V12.3664C25.1447 12.3664 25.1447 12.3664 25.1447 12.3664C25.1447 12.3664 25.1447 12.3664 25.1447 12.3664C25.1447 12.3664 25.1447 12.3664 25.1447 12.3664C25.1447 12.3664 25.1447 12.3664 25.1447 12.3664C25.1447 12.3664 25.1447 12.3664 25.1447 12.3664C25.1447 12.3664 25.1447 12.3664 25.1447 12.3664H25.1447C25.1447 12.3664 25.1447 12.3664 25.1447 12.3664C25.1447 12.3664 25.1447 12.3664 25.1447 12.3664C25.1447 12.3664 25.1447 12.3664 25.1447 12.3664H25.1447C25.1447 12.3664 25.1447 12.3664 25.1447 12.3664C25.1447 12.3664 25.1447 12.3664 25.1447 12.3664V12.3664C25.1447 12.3664 25.1447 12.3664 25.1447 12.3664H25.1447C25.1447 12.3664 25.1447 12.3664 25.1447 12.3664C25.1447 12.3664 25.1447 12.3664 25.1447 12.3664C25.1447 12.3664 25.1447 12.3664 25.1447 12.3664C25.1447 12.3664 25.1447 12.3664 25.1447 12.3664H25.1447C25.1447 12.3664 25.1447 12.3664 25.1447 12.3664H25.1447L25.173 12.2742C25.173 12.2742 25.173 12.2742 25.173 12.2742C25.173 12.2742 25.173 12.2742 25.173 12.2742L25.173 12.2742C25.173 12.2742 25.173 12.2742 25.173 12.2742C25.173 12.2742 25.173 12.2742 25.173 12.2742C25.173 12.2742 25.173 12.2742 25.173 12.2742C25.173 12.2742 25.173 12.2742 25.173 12.2742C25.173 12.2742 25.173 12.2742 25.173 12.2742C25.173 12.2742 25.173 12.2742 25.173 12.2742V12.2742C25.173 12.2742 25.173 12.2742 25.173 12.2742C25.173 12.2742 25.173 12.2742 25.173 12.2742H25.173C25.173 12.2742 25.173 12.2742 25.173 12.2742H25.173C25.173 12.2742 25.173 12.2742 25.173 12.2742C25.173 12.2742 25.173 12.2742 25.173 12.2742C25.173 12.2742 25.173 12.2742 25.173 12.2742C25.173 12.2742 25.173 12.2742 25.173 12.2742V12.2742H25.173V12.2742C25.173 12.2742 25.173 12.2742 25.173 12.2742C25.173 12.2742 25.173 12.2742 25.173 12.2742C25.173 12.2742 25.173 12.2742 25.173 12.2742C25.173 12.2742 25.173 12.2742 25.173 12.2742C25.173 12.2742 25.173 12.2742 25.173 12.2742C25.173 12.2742 25.173 12.2742 25.173 12.2742H25.173C25.173 12.2742 25.173 12.2742 25.173 12.2742C25.173 12.2742 25.173 12.2742 25.173 12.2742V12.2742C25.173 12.2742 25.173 12.2742 25.173 12.2742C25.173 12.2742 25.173 12.2742 25.173 12.2742C25.173 12.2742 25.173 12.2742 25.173 12.2742C25.173 12.2742 25.173 12.2742 25.173 12.2742C25.173 12.2742 25.173 12.2742 25.173 12.2742C25.173 12.2742 25.173 12.2742 25.173 12.2742C25.173 12.2742 25.173 12.2742 25.173 12.2742L25.173 12.2742C25.173 12.2742 25.173 12.2742 25.173 12.2742C25.173 12.2742 25.173 12.2742 25.173 12.2742C25.173 12.2742 25.173 12.2742 25.173 12.2742C25.173 12.2742 25.173 12.2742 25.173 12.2742C25.173 12.2742 25.173 12.2742 25.173 12.2742C25.173 12.2742 25.173 12.2742 25.173 12.2742C25.173 12.2742 25.173 12.2742 25.173 12.2742V12.2742C25.173 12.2742 25.173 12.2742 25.173 12.2742V12.2742H25.173C25.173 12.2742 25.173 12.2742 25.173 12.2742C25.173 12.2742 25.173 12.2742 25.173 12.2742C25.173 12.2742 25.173 12.2742 25.173 12.2742C25.173 12.2742 25.173 12.2742 25.173 12.2742C25.173 12.2742 25.173 12.2742 25.173 12.2742C25.173 12.2742 25.173 12.2742 25.173 12.2742V12.2742H25.173V12.2742C25.173 12.2742 25.173 12.2742 25.173 12.2742V12.2742C25.173 12.2742 25.173 12.2742 25.173 12.2742C25.173 12.2742 25.173 12.2742 25.173 12.2742C25.173 12.2742 25.173 12.2742 25.173 12.2742H25.173C25.173 12.2742 25.173 12.2742 25.173 12.2742C25.173 12.2742 25.173 12.2742 25.173 12.2742V12.2742C25.173 12.2742 25.173 12.2742 25.173 12.2742L25.173 12.2742C25.173 12.2742 25.173 12.2742 25.173 12.2742C25.173 12.2742 25.173 12.2742 25.1729 12.2742C25.1729 12.2742 25.1729 12.2742 25.1729 12.2742C25.1729 12.2742 25.1729 12.2742 25.1729 12.2742L25.1729 12.2742C25.1729 12.2742 25.1729 12.2742 25.1729 12.2742V12.2742C25.1729 12.2742 25.1729 12.2742 25.1729 12.2742C25.1729 12.2742 25.1729 12.2742 25.1729 12.2742H25.1729C25.1729 12.2742 25.1729 12.2742 25.1729 12.2742C25.1729 12.2742 25.1729 12.2742 25.1729 12.2742C25.1729 12.2742 25.1729 12.2742 25.1729 12.2742V12.2742C25.1729 12.2742 25.1729 12.2742 25.1729 12.2742V12.2742H25.1729C25.1729 12.2742 25.1729 12.2742 25.1729 12.2742C25.1729 12.2742 25.1729 12.2742 25.1729 12.2742C25.1729 12.2742 25.1729 12.2742 25.1729 12.2742C25.1729 12.2742 25.1729 12.2742 25.1729 12.2742C25.1729 12.2742 25.1729 12.2742 25.1729 12.2742C25.1729 12.2742 25.1729 12.2742 25.1729 12.2742C25.1729 12.2742 25.1729 12.2742 25.1729 12.2742H25.1729V12.2742C25.1729 12.2742 25.1729 12.2742 25.1729 12.2742V12.2742C25.1729 12.2742 25.1729 12.2742 25.1729 12.2742C25.1729 12.2742 25.1729 12.2742 25.1729 12.2742C25.1729 12.2742 25.1729 12.2742 25.1729 12.2742C25.1729 12.2742 25.1729 12.2742 25.1729 12.2742C25.1729 12.2742 25.1729 12.2742 25.1729 12.2742C25.1729 12.2742 25.1729 12.2742 25.1729 12.2742C25.1729 12.2742 25.1729 12.2742 25.1729 12.2742L25.1729 12.2742C25.1729 12.2742 25.1729 12.2742 25.1729 12.2742C25.1729 12.2742 25.1729 12.2742 25.1729 12.2742C25.1729 12.2742 25.1729 12.2742 25.1729 12.2742C25.1729 12.2742 25.1729 12.2742 25.1729 12.2742C25.1729 12.2742 25.1729 12.2742 25.1729 12.2742C25.1729 12.2742 25.1729 12.2742 25.1729 12.2742C25.1729 12.2742 25.1729 12.2742 25.1729 12.2742V12.2742C25.1729 12.2742 25.1729 12.2742 25.1729 12.2742C25.1729 12.2742 25.1729 12.2742 25.1729 12.2742H25.1729C25.1729 12.2742 25.1729 12.2742 25.1729 12.2742C25.1729 12.2742 25.1729 12.2742 25.1729 12.2742C25.1729 12.2742 25.1729 12.2742 25.1729 12.2742C25.1729 12.2742 25.1729 12.2742 25.1729 12.2742C25.1729 12.2742 25.1729 12.2742 25.1729 12.2742V12.2742H25.1729V12.2742C25.1729 12.2742 25.1729 12.2742 25.1729 12.2742C25.1729 12.2742 25.1729 12.2742 25.1729 12.2742C25.1729 12.2742 25.1729 12.2742 25.1729 12.2742C25.1729 12.2742 25.1729 12.2742 25.1729 12.2742H25.1729C25.1729 12.2742 25.1729 12.2742 25.1729 12.2742H25.1729C25.1729 12.2742 25.1729 12.2742 25.1729 12.2742C25.1729 12.2742 25.1729 12.2742 25.1729 12.2742V12.2742C25.1729 12.2742 25.1729 12.2742 25.1729 12.2742C25.1729 12.2742 25.1729 12.2742 25.1729 12.2742C25.1729 12.2742 25.1729 12.2742 25.1729 12.2742C25.1729 12.2742 25.1729 12.2742 25.1729 12.2742C25.1729 12.2742 25.1729 12.2742 25.1729 12.2742C25.1729 12.2742 25.1729 12.2742 25.1729 12.2742L25.1729 12.2742C25.1729 12.2742 25.1729 12.2742 25.1729 12.2742C25.1729 12.2742 25.1729 12.2742 25.1729 12.2742C25.1729 12.2742 25.1729 12.2742 25.1729 12.2742C25.1729 12.2742 25.1729 12.2742 25.1729 12.2742C25.1729 12.2742 25.1729 12.2742 25.1729 12.2742C25.1729 12.2742 25.1729 12.2742 25.1729 12.2742C25.1729 12.2742 25.1729 12.2742 25.1729 12.2742V12.2742C25.1729 12.2742 25.1729 12.2742 25.1729 12.2742V12.2742H25.1729C25.1729 12.2742 25.1729 12.2742 25.1729 12.2742C25.1729 12.2742 25.1729 12.2742 25.1729 12.2742C25.1729 12.2742 25.1729 12.2742 25.1729 12.2742C25.1729 12.2742 25.1729 12.2742 25.1729 12.2742C25.1729 12.2742 25.1729 12.2742 25.1729 12.2742C25.1729 12.2742 25.1729 12.2742 25.1729 12.2742C25.1729 12.2742 25.1729 12.2742 25.1729 12.2742V12.2742H25.1729V12.2742C25.1729 12.2742 25.1729 12.2742 25.1729 12.2742V12.2742C25.1729 12.2742 25.1729 12.2742 25.1729 12.2742C25.1729 12.2742 25.1729 12.2742 25.1729 12.2742C25.1729 12.2742 25.1729 12.2742 25.1729 12.2742C25.1729 12.2742 25.1729 12.2742 25.1729 12.2742C25.1729 12.2742 25.1729 12.2742 25.1729 12.2742C25.1729 12.2742 25.1729 12.2742 25.1729 12.2742V12.2742C25.1729 12.2742 25.1729 12.2742 25.1729 12.2742L25.1729 12.2742C25.1729 12.2742 25.1729 12.2742 25.1729 12.2742C25.1729 12.2742 25.1729 12.2742 25.1729 12.2742C25.1729 12.2742 25.1729 12.2742 25.1729 12.2742C25.1729 12.2742 25.1729 12.2742 25.1729 12.2742L25.1729 12.2742C25.1729 12.2742 25.1729 12.2742 25.1729 12.2742C25.1729 12.2742 25.1729 12.2742 25.1729 12.2742C25.1729 12.2742 25.1729 12.2742 25.1729 12.2742C25.1729 12.2742 25.1729 12.2742 25.1729 12.2742H25.1729C25.1729 12.2742 25.1729 12.2742 25.1729 12.2742C25.1729 12.2742 25.1729 12.2742 25.1729 12.2742C25.1729 12.2742 25.1729 12.2742 25.1729 12.2742C25.1729 12.2742 25.1729 12.2742 25.1729 12.2742V12.2742C25.1729 12.2742 25.1729 12.2742 25.1729 12.2742V12.2742H25.1729C25.1729 12.2742 25.1729 12.2742 25.1729 12.2742C25.1729 12.2742 25.1729 12.2742 25.1729 12.2742C25.1729 12.2742 25.1729 12.2742 25.1729 12.2742C25.1729 12.2742 25.1729 12.2742 25.1729 12.2742C25.1729 12.2742 25.1729 12.2742 25.1729 12.2742H25.1729C25.1729 12.2742 25.1729 12.2742 25.1729 12.2742H25.1729V12.2742C25.1729 12.2742 25.1729 12.2742 25.1729 12.2742V12.2742C25.1729 12.2742 25.1729 12.2742 25.1729 12.2742C25.1729 12.2742 25.1729 12.2742 25.1729 12.2742C25.1729 12.2742 25.1729 12.2742 25.1729 12.2742C25.1729 12.2742 25.1729 12.2742 25.1729 12.2742C25.1729 12.2742 25.1729 12.2742 25.1729 12.2742C25.1729 12.2742 25.1729 12.2742 25.1729 12.2742L25.1729 12.2742C25.1729 12.2742 25.1729 12.2742 25.1729 12.2742C25.1729 12.2742 25.1729 12.2742 25.1729 12.2742C25.1729 12.2742 25.1729 12.2742 25.1729 12.2742C25.1729 12.2742 25.1729 12.2742 25.1729 12.2742C25.1729 12.2742 25.1729 12.2742 25.1729 12.2742C25.1729 12.2742 25.1729 12.2742 25.1729 12.2742V12.2742C25.1729 12.2742 25.1729 12.2742 25.1729 12.2742C25.1729 12.2742 25.1729 12.2742 25.1729 12.2742H25.1729C25.1729 12.2742 25.1729 12.2742 25.1729 12.2742C25.1729 12.2742 25.1729 12.2742 25.1729 12.2742C25.1729 12.2742 25.1729 12.2742 25.1729 12.2742C25.1729 12.2742 25.1729 12.2742 25.1729 12.2742C25.1729 12.2742 25.1729 12.2742 25.1729 12.2742H25.1729V12.2742H25.1729V12.2742C25.1729 12.2742 25.1729 12.2742 25.1729 12.2742C25.1729 12.2742 25.1729 12.2742 25.1729 12.2742C25.1729 12.2742 25.1729 12.2742 25.1729 12.2742C25.1729 12.2742 25.1729 12.2742 25.1729 12.2742H25.1729C25.1729 12.2742 25.1729 12.2742 25.1729 12.2742C25.1729 12.2742 25.1729 12.2742 25.1729 12.2742C25.1729 12.2742 25.1729 12.2742 25.1729 12.2742C25.1729 12.2742 25.1729 12.2742 25.1729 12.2742V12.2742C25.1729 12.2742 25.1729 12.2742 25.1729 12.2742C25.1729 12.2742 25.1729 12.2742 25.1729 12.2742C25.1729 12.2742 25.1729 12.2742 25.1729 12.2742C25.1729 12.2742 25.1729 12.2742 25.1729 12.2742C25.1729 12.2742 25.1729 12.2742 25.1729 12.2742L25.1729 12.2742L25.1729 12.2742C25.1729 12.2742 25.1729 12.2742 25.1728 12.2742C25.1728 12.2742 25.1728 12.2742 25.1728 12.2742C25.1728 12.2742 25.1728 12.2742 25.1728 12.2742C25.1728 12.2742 25.1728 12.2742 25.1728 12.2742C25.1728 12.2742 25.1728 12.2742 25.1728 12.2742C25.1728 12.2742 25.1728 12.2742 25.1728 12.2742V12.2742C25.1728 12.2742 25.1728 12.2742 25.1728 12.2742V12.2742C25.1728 12.2742 25.1728 12.2742 25.1728 12.2742V12.2742H25.1728C25.1728 12.2742 25.1728 12.2742 25.1728 12.2742C25.1728 12.2742 25.1728 12.2742 25.1728 12.2742C25.1728 12.2742 25.1728 12.2742 25.1728 12.2742C25.1728 12.2742 25.1728 12.2742 25.1728 12.2742C25.1728 12.2742 25.1728 12.2742 25.1728 12.2742C25.1728 12.2742 25.1728 12.2742 25.1728 12.2742H25.1728V12.2742C25.1728 12.2742 25.1728 12.2742 25.1728 12.2742V12.2742C25.1728 12.2742 25.1728 12.2742 25.1728 12.2742V12.2742C25.1728 12.2742 25.1728 12.2742 25.1728 12.2742C25.1728 12.2742 25.1728 12.2742 25.1728 12.2742C25.1728 12.2742 25.1728 12.2742 25.1728 12.2742C25.1728 12.2742 25.1728 12.2742 25.1728 12.2742C25.1728 12.2742 25.1728 12.2742 25.1728 12.2742C25.1728 12.2742 25.1728 12.2742 25.1728 12.2742L25.1728 12.2742C25.1728 12.2742 25.1728 12.2742 25.1728 12.2742C25.1728 12.2742 25.1728 12.2742 25.1728 12.2742C25.1728 12.2742 25.1728 12.2742 25.1728 12.2742C25.1728 12.2742 25.1728 12.2742 25.1728 12.2742C25.1728 12.2742 25.1728 12.2742 25.1728 12.2742C25.1728 12.2742 25.1728 12.2742 25.1728 12.2742C25.1728 12.2742 25.1728 12.2742 25.1728 12.2742C25.1728 12.2742 25.1728 12.2742 25.1728 12.2742C25.1728 12.2742 25.1728 12.2742 25.1728 12.2742C25.1728 12.2741 25.1728 12.2741 25.1728 12.2741H25.1728C25.1728 12.2741 25.1728 12.2741 25.1728 12.2741C25.1728 12.2741 25.1728 12.2741 25.1728 12.2741C25.1728 12.2741 25.1728 12.2741 25.1728 12.2741C25.1728 12.2741 25.1728 12.2741 25.1728 12.2741V12.2741H25.1728V12.2741H25.1728C25.1728 12.2741 25.1728 12.2741 25.1728 12.2741C25.1728 12.2741 25.1728 12.2741 25.1728 12.2741C25.1728 12.2741 25.1728 12.2741 25.1728 12.2741C25.1728 12.2741 25.1728 12.2741 25.1728 12.2741C25.1728 12.2741 25.1728 12.2741 25.1728 12.2741H25.1728C25.1728 12.2741 25.1728 12.2741 25.1728 12.2741C25.1728 12.2741 25.1728 12.2741 25.1728 12.2741V12.2741C25.1728 12.2741 25.1728 12.2741 25.1728 12.2741C25.1728 12.2741 25.1728 12.2741 25.1728 12.2741C25.1728 12.2741 25.1728 12.2741 25.1728 12.2741C25.1728 12.2741 25.1728 12.2741 25.1728 12.2741C25.1728 12.2741 25.1728 12.2741 25.1728 12.2741C25.1728 12.2741 25.1728 12.2741 25.1728 12.2741C25.1728 12.2741 25.1728 12.2741 25.1728 12.2741L25.1728 12.2741C25.1728 12.2741 25.1728 12.2741 25.1728 12.2741C25.1728 12.2741 25.1728 12.2741 25.1728 12.2741C25.1728 12.2741 25.1728 12.2741 25.1728 12.2741C25.1728 12.2741 25.1728 12.2741 25.1728 12.2741C25.1728 12.2741 25.1728 12.2741 25.1728 12.2741C25.1728 12.2741 25.1728 12.2741 25.1728 12.2741V12.2741C25.1728 12.2741 25.1728 12.2741 25.1728 12.2741V12.2741C25.1728 12.2741 25.1728 12.2741 25.1728 12.2741C25.1728 12.2741 25.1728 12.2741 25.1728 12.2741H25.1728C25.1728 12.2741 25.1728 12.2741 25.1728 12.2741C25.1728 12.2741 25.1728 12.2741 25.1728 12.2741C25.1728 12.2741 25.1728 12.2741 25.1728 12.2741C25.1728 12.2741 25.1728 12.2741 25.1728 12.2741C25.1728 12.2741 25.1728 12.2741 25.1728 12.2741H25.1728V12.2741C25.1728 12.2741 25.1728 12.2741 25.1728 12.2741V12.2741C25.1728 12.2741 25.1728 12.2741 25.1728 12.2741C25.1728 12.2741 25.1728 12.2741 25.1728 12.2741C25.1728 12.2741 25.1728 12.2741 25.1728 12.2741C25.1728 12.2741 25.1728 12.2741 25.1728 12.2741H25.1728C25.1728 12.2741 25.1728 12.2741 25.1728 12.2741C25.1728 12.2741 25.1728 12.2741 25.1728 12.2741V12.2741C25.1728 12.2741 25.1728 12.2741 25.1728 12.2741L25.1728 12.2741C25.1728 12.2741 25.1728 12.2741 25.1728 12.2741C25.1728 12.2741 25.1728 12.2741 25.1728 12.2741C25.1728 12.2741 25.1728 12.2741 25.1728 12.2741C25.1728 12.2741 25.1728 12.2741 25.1728 12.2741L25.1728 12.2741C25.1728 12.2741 25.1728 12.2741 25.1728 12.2741V12.2741C25.1728 12.2741 25.1728 12.2741 25.1728 12.2741C25.1728 12.2741 25.1728 12.2741 25.1728 12.2741C25.1728 12.2741 25.1728 12.2741 25.1728 12.2741C25.1728 12.2741 25.1728 12.2741 25.1728 12.2741C25.1728 12.2741 25.1728 12.2741 25.1728 12.2741C25.1728 12.2741 25.1728 12.2741 25.1728 12.2741V12.2741C25.1728 12.2741 25.1728 12.2741 25.1728 12.2741V12.2741H25.1728V12.2741H25.1728C25.1728 12.2741 25.1728 12.2741 25.1728 12.2741C25.1728 12.2741 25.1728 12.2741 25.1728 12.2741C25.1728 12.2741 25.1728 12.2741 25.1728 12.2741C25.1728 12.2741 25.1728 12.2741 25.1728 12.2741C25.1728 12.2741 25.1728 12.2741 25.1728 12.2741C25.1728 12.2741 25.1728 12.2741 25.1728 12.2741H25.1728V12.2741C25.1728 12.2741 25.1728 12.2741 25.1728 12.2741V12.2741C25.1728 12.2741 25.1728 12.2741 25.1728 12.2741C25.1728 12.2741 25.1728 12.2741 25.1728 12.2741C25.1728 12.2741 25.1728 12.2741 25.1728 12.2741C25.1728 12.2741 25.1728 12.2741 25.1728 12.2741C25.1728 12.2741 25.1728 12.2741 25.1728 12.2741L25.1445 12.3663ZM24.3406 14.9638L25.2044 12.3353L25.1129 12.3052L24.249 14.9337L24.3406 14.9638ZM23.9008 14.883C24.0279 14.9172 24.1542 14.9547 24.2802 14.9947L24.3093 14.9028C24.1822 14.8625 24.0545 14.8246 23.9259 14.7899L23.9008 14.883ZM21.4971 14.5451C22.2642 14.5451 23.065 14.6574 23.9008 14.883L23.9259 14.7899C23.0829 14.5624 22.2737 14.4487 21.4971 14.4487V14.5451ZM21.4489 14.496V14.4969H21.5453V14.496H21.4489ZM21.2521 14.5475C21.3325 14.5455 21.414 14.5442 21.4971 14.5442V14.4478C21.4131 14.4478 21.3307 14.4491 21.2497 14.4511L21.2521 14.5475ZM23.1182 11.858L21.212 14.4709L21.2899 14.5277L23.1961 11.9148L23.1182 11.858ZM23.1639 11.8387C23.1638 11.8387 23.1637 11.8387 23.1636 11.8387C23.1636 11.8387 23.1635 11.8387 23.1635 11.8387L23.1507 11.9342C23.1508 11.9342 23.1509 11.9342 23.1509 11.9342C23.151 11.9343 23.1511 11.9343 23.1511 11.9343L23.1639 11.8387ZM25.6324 8.4119L23.1185 11.8581L23.1964 11.9149L25.7103 8.46871L25.6324 8.4119ZM26.3595 8.81913C26.4531 8.40169 25.9518 8.11434 25.6386 8.40497L25.7041 8.47563C25.9481 8.24926 26.3382 8.47318 26.2655 8.79806L26.3595 8.81913ZM21.4613 14.5291L21.4616 14.5294L21.5332 14.4649L21.5329 14.4646L21.4613 14.5291ZM21.4974 14.5454C22.2641 14.5454 23.0653 14.6577 23.9011 14.8833L23.9262 14.7903C23.0832 14.5627 22.2736 14.449 21.4974 14.449V14.5454ZM23.9011 14.8833C24.0281 14.9175 24.1545 14.955 24.2805 14.995L24.3096 14.9031C24.1825 14.8628 24.0548 14.8249 23.9262 14.7902L23.9011 14.8833ZM24.2493 14.934L22.679 19.7124L22.7706 19.7425L24.3408 14.9641L24.2493 14.934ZM22.7368 19.6807C22.4203 19.5992 22.1032 19.5204 21.7849 19.4462L21.763 19.54C22.0805 19.6141 22.3968 19.6926 22.7128 19.7741L22.7368 19.6807ZM21.7849 19.4462C21.0307 19.2702 20.3479 19.0902 19.7366 18.9058L19.7088 18.9981C20.3224 19.1832 21.0072 19.3637 21.763 19.54L21.7849 19.4462ZM19.7366 18.9058C19.2398 18.7559 18.8228 18.5594 18.4845 18.3169L18.4283 18.3952C18.7771 18.6452 19.2041 18.8459 19.7088 18.9981L19.7366 18.9058ZM18.4283 18.3952C18.7771 18.6452 19.2041 18.8463 19.709 18.9982L19.7367 18.9058C19.2399 18.7564 18.8229 18.5595 18.4845 18.3169L18.4283 18.3952ZM19.7089 18.9982C20.3226 19.1833 21.0073 19.3638 21.7631 19.5401L21.785 19.4462C21.0308 19.2703 20.3481 19.0903 19.7368 18.9059L19.7089 18.9982ZM21.7631 19.5401C22.0806 19.6142 22.3969 19.6927 22.7129 19.7742L22.7369 19.6808C22.4204 19.5992 22.1034 19.5205 21.785 19.4462L21.7631 19.5401ZM22.6791 19.7125L22.6074 19.9304L22.699 19.9605L22.7707 19.7426L22.6791 19.7125ZM22.6427 19.9925L25.1519 20.5541L25.173 20.4601L22.6637 19.8984L22.6427 19.9925ZM25.1519 20.5541C25.4185 20.6141 25.5088 20.9477 25.3087 21.1334L25.3743 21.2041C25.6314 20.9654 25.5151 20.537 25.173 20.4601L25.1519 20.5541ZM25.3024 21.1406L23.7977 23.2289L23.8759 23.2853L25.3806 21.1969L25.3024 21.1406ZM23.7969 23.2301L23.7968 23.2302L23.8767 23.2842L23.8768 23.2841L23.7969 23.2301ZM23.7976 23.2291L20.9706 27.1536L21.0488 27.2099L23.8759 23.2854L23.7976 23.2291ZM20.9615 27.1817V27.1821H21.0579V27.1817H20.9615ZM21.0097 27.1339H20.9941V27.2303H21.0097V27.1339ZM20.9941 27.1339C20.0001 27.1339 19.0272 26.9791 18.0749 26.6709L18.0453 26.7626C19.007 27.0739 19.9899 27.2303 20.9941 27.2303V27.1339ZM18.1059 26.7318L19.6597 22.0032L19.5681 21.9731L18.0143 26.7017L18.1059 26.7318ZM19.6263 21.9416L19.6259 21.9415L19.6011 22.0346L19.6015 22.0348L19.6263 21.9416ZM19.6593 22.0031L19.7699 21.6668L19.6783 21.6367L19.5677 21.973L19.6593 22.0031ZM19.7346 21.6047L17.1308 21.0217L17.1097 21.1158L19.7136 21.6988L19.7346 21.6047ZM17.1307 21.0217C16.8647 20.9622 16.7742 20.6283 16.9744 20.4425L16.9088 20.3718C16.6518 20.6104 16.7678 21.0393 17.1097 21.1158L17.1307 21.0217ZM16.9805 20.4356L18.4832 18.3757L18.4053 18.3189L16.9027 20.3787L16.9805 20.4356ZM18.4723 18.3081L18.4722 18.308L18.4161 18.3865L18.4163 18.3866L18.4723 18.3081ZM18.4831 18.3757L21.2897 14.5284L21.2119 14.4716L18.4052 18.3188L18.4831 18.3757ZM21.252 14.5482C21.3324 14.5462 21.4139 14.545 21.497 14.545V14.4486C21.413 14.4486 21.3306 14.4498 21.2496 14.4519L21.252 14.5482ZM21.4681 14.5353L21.4682 14.5354L21.526 14.4583L21.5259 14.4582L21.4681 14.5353Z" fill="white" mask="url(#path-8-inside-1_0_277)"/>
<path d="M20.9939 27.1822C19.9943 27.1822 19.0164 27.0269 18.0599 26.7168L17.193 29.3543C17.8276 29.5443 18.4769 29.6849 19.141 29.7754L21.0095 27.1814C21.0041 27.1814 20.9992 27.1814 20.9939 27.1814V27.1822Z" fill="#70E000"/>
</g>
<defs>
<clipPath id="clip0_0_277">
<rect width="41.8367" height="41.8367" fill="white" transform="translate(0.163086 0.147705)"/>
</clipPath>
</defs>
</svg>
