<svg width="42" height="42" viewBox="0 0 42 42" fill="none" xmlns="http://www.w3.org/2000/svg">
<rect x="0.104858" y="0.0891724" width="41.8951" height="41.8951" rx="20.9476" fill="#010101"/>
<path d="M16.8292 10.6442L20.8785 8.30576C20.9939 8.23923 21.1369 8.23923 21.2522 8.30576L31.9244 14.4674C32.0397 14.5339 32.1107 14.657 32.1118 14.79L32.1262 19.0279C32.1262 19.162 32.0553 19.2862 31.9388 19.3527L27.895 21.6879C27.6467 21.832 27.3351 21.6524 27.334 21.3652L27.3207 17.562C27.3207 17.429 27.2486 17.3059 27.1333 17.2394L16.8292 11.2918C16.5797 11.1476 16.5797 10.7884 16.8292 10.6442Z" fill="#B4F9BA"/>
<path d="M14.2135 29.8397L10.1653 27.5023C10.0489 27.4358 9.97791 27.3127 9.97791 27.1786V14.8554C9.97791 14.7223 10.0489 14.5992 10.1642 14.5316L13.8277 12.3994C13.9441 12.3317 14.0871 12.3317 14.2024 12.3994L18.2462 14.7345C18.4946 14.8786 18.4957 15.2368 18.2473 15.382L14.9609 17.2947C14.8455 17.3612 14.7746 17.4843 14.7746 17.6185V29.517C14.7746 29.8053 14.463 29.9849 14.2135 29.8408V29.8397Z" fill="#B4F9BA"/>
<path d="M32.1261 22.5028V27.1775C32.1261 27.3117 32.0552 27.4348 31.9387 27.5013L21.2665 33.6629C21.1512 33.7294 21.0093 33.7294 20.894 33.6629L17.2161 31.5562C17.0997 31.4897 17.0276 31.3655 17.0276 31.2313V26.5621C17.0276 26.275 17.3381 26.0953 17.5875 26.2373L20.8873 28.1278C21.0026 28.1943 21.1446 28.1932 21.2599 28.1278L31.564 22.1779C31.8135 22.0338 32.125 22.2134 32.125 22.5017L32.1261 22.5028Z" fill="#B4F9BA"/>
</svg>
